<svg width="178" height="106" viewBox="0 0 178 106" fill="none" xmlns="http://www.w3.org/2000/svg">
<path d="M42.2913 42.41H35.2581C32.2744 42.41 30.1238 41.6544 28.8063 40.1431C27.4888 38.5931 26.83 36.5587 26.83 34.04C26.83 28.46 30.9956 25.67 39.3269 25.67C47.1544 25.67 53.0444 26.8325 56.9969 29.1575L53.6256 31.715C50.9131 30.475 46.1469 29.855 39.3269 29.855C35.9944 29.855 33.7469 30.2231 32.5844 30.9594C31.4606 31.6956 30.8988 32.7225 30.8988 34.04C30.8988 35.3575 31.2088 36.3844 31.8288 37.1206C32.4488 37.8569 33.5919 38.225 35.2581 38.225H42.4656C47.6969 38.225 52.405 39.1162 56.59 40.8987C60.8138 42.6812 64.2819 45.1225 66.9944 48.2225C69.7069 51.2837 71.78 54.8294 73.2138 58.8594C74.6475 62.8506 75.3644 67.1325 75.3644 71.705C75.3644 75.425 74.8413 78.9512 73.795 82.2837C72.7488 85.6162 71.16 88.6775 69.0288 91.4675C66.9363 94.2575 64.3981 96.6794 61.4144 98.7331C58.4694 100.748 54.9431 102.318 50.8356 103.441C46.7669 104.604 42.3494 105.185 37.5831 105.185C30.1044 105.185 23.0906 104.042 16.5419 101.756C10.0319 99.5081 4.60688 96.35 0.266875 92.2812L3.63813 89.7819C7.59063 93.3469 12.5313 96.1175 18.46 98.0937C24.4275 100.031 30.8019 101 37.5831 101C42.8919 101 47.6775 100.244 51.94 98.7331C56.2413 97.1831 59.7675 95.0712 62.5188 92.3975C65.3088 89.7237 67.44 86.6237 68.9125 83.0975C70.4238 79.5712 71.1794 75.7737 71.1794 71.705C71.1794 66.3187 70.0944 61.4556 67.9244 57.1156C65.7544 52.7369 62.4413 49.1912 57.985 46.4787C53.5675 43.7662 48.3363 42.41 42.2913 42.41ZM35.2581 46.595H41.8844C49.7506 46.595 55.8925 48.9975 60.31 53.8025C64.7663 58.6075 66.9944 64.575 66.9944 71.705C66.9944 78.9512 64.4175 84.9575 59.2638 89.7237C54.11 94.4512 46.8831 96.815 37.5831 96.815C31.3831 96.815 25.59 95.9625 20.2038 94.2575C14.8175 92.5525 10.3419 90.15 6.77688 87.05L10.0319 84.4344C13.2094 87.0306 17.2006 89.0456 22.0056 90.4794C26.8494 91.9131 32.0419 92.63 37.5831 92.63C45.7594 92.63 51.9981 90.6731 56.2994 86.7594C60.6394 82.8456 62.8094 77.8275 62.8094 71.705C62.8094 65.66 60.9881 60.6612 57.3456 56.7087C53.7419 52.7562 48.5688 50.78 41.8263 50.78H35.2581C29.6006 50.78 25.3575 49.23 22.5288 46.13C19.7 43.03 18.2856 39 18.2856 34.04C18.2856 29.08 20.0294 25.05 23.5169 21.95C27.0431 18.85 32.3131 17.3 39.3269 17.3C44.2481 17.3 48.8206 17.8812 53.0444 19.0437C57.2681 20.1675 60.7556 21.795 63.5069 23.9262L60.1938 26.4837C55.35 23.1512 48.3944 21.485 39.3269 21.485C33.4756 21.485 29.1938 22.6475 26.4813 24.9725C23.8075 27.2587 22.4706 30.2812 22.4706 34.04C22.4706 37.8375 23.4588 40.8794 25.435 43.1656C27.45 45.4519 30.7244 46.595 35.2581 46.595ZM35.2581 54.965H41.6519C47.3094 54.965 51.5525 56.5344 54.3813 59.6731C57.21 62.8119 58.6244 66.8225 58.6244 71.705C58.6244 76.665 56.8613 80.695 53.335 83.795C49.8475 86.895 44.5969 88.445 37.5831 88.445C32.6619 88.445 28.07 87.8831 23.8075 86.7594C19.5838 85.5969 16.0963 83.95 13.345 81.8187L16.6581 79.2612C21.5019 82.5937 28.4769 84.26 37.5831 84.26C43.4344 84.26 47.6969 83.1169 50.3706 80.8306C53.0831 78.5056 54.4394 75.4637 54.4394 71.705C54.4394 67.9462 53.4319 64.9237 51.4169 62.6375C49.4019 60.3125 46.1275 59.15 41.5938 59.15H35.2581C27.3144 59.15 21.095 56.7862 16.6 52.0587C12.1438 47.2925 9.91563 41.2862 9.91563 34.04C9.91563 26.7937 12.4925 20.8069 17.6463 16.0794C22.8 11.3131 30.0269 8.93 39.3269 8.93C45.5269 8.93 51.3006 9.7825 56.6481 11.4875C62.0344 13.1925 66.51 15.595 70.075 18.695L66.82 21.3106C63.6425 18.7144 59.6513 16.6994 54.8463 15.2656C50.0413 13.8319 44.8681 13.115 39.3269 13.115C31.1506 13.115 24.8925 15.0719 20.5525 18.9856C16.2513 22.8994 14.1006 27.9175 14.1006 34.04C14.1006 40.1237 15.9219 45.1419 19.5644 49.0944C23.2069 53.0081 28.4381 54.965 35.2581 54.965ZM35.2581 63.335H41.6519C44.6356 63.335 46.7863 64.11 48.1038 65.66C49.4213 67.21 50.08 69.225 50.08 71.705C50.08 77.285 45.9144 80.075 37.5831 80.075C29.7169 80.075 23.8075 78.9125 19.855 76.5875L23.2263 74.03C25.9388 75.27 30.7244 75.89 37.5831 75.89C40.9156 75.89 43.1438 75.5219 44.2675 74.7856C45.43 74.0494 46.0113 73.0225 46.0113 71.705C46.0113 70.4262 45.6819 69.4187 45.0231 68.6825C44.4031 67.9075 43.2406 67.52 41.5356 67.52H35.2581C29.9106 67.52 25.0669 66.6481 20.7269 64.9044C16.4256 63.1606 12.88 60.7581 10.09 57.6969C7.33875 54.6356 5.22688 51.09 3.75438 47.06C2.28188 43.03 1.54563 38.69 1.54563 34.04C1.54563 30.32 2.06875 26.7937 3.115 23.4612C4.16125 20.1287 5.73063 17.0675 7.82313 14.2775C9.95438 11.4875 12.4925 9.085 15.4375 7.07C18.4213 5.01625 21.9475 3.4275 26.0163 2.30375C30.1238 1.14125 34.5606 0.559999 39.3269 0.559999C46.8056 0.559999 53.8 1.70312 60.31 3.98937C66.82 6.23687 72.245 9.395 76.585 13.4637L73.2138 15.9631C69.2613 12.3981 64.3206 9.64687 58.3919 7.70937C52.4631 5.73312 46.1081 4.745 39.3269 4.745C34.0181 4.745 29.2131 5.52 24.9119 7.07C20.6494 8.58125 17.1231 10.6737 14.3331 13.3475C11.5819 16.0212 9.45063 19.1212 7.93938 22.6475C6.46688 26.1737 5.73063 29.9712 5.73063 34.04C5.73063 39.5037 6.835 44.425 9.04375 48.8037C11.2525 53.1825 14.6238 56.7087 19.1575 59.3825C23.6913 62.0175 29.0581 63.335 35.2581 63.335ZM148.602 67.4619C148.602 65.9506 148.137 64.9431 147.207 64.4394C146.316 63.9356 144.998 63.6837 143.254 63.6837H116.284V59.4987H143.254C149.609 59.4987 152.787 62.1531 152.787 67.4619C152.787 70.4456 151.915 72.5962 150.171 73.9137C148.428 75.2312 146.122 75.89 143.254 75.89H116.284V71.705H143.254C146.819 71.705 148.602 70.2906 148.602 67.4619ZM113.959 101H109.774V29.855H143.254C145.889 29.855 148.137 30.6687 149.997 32.2962C151.857 33.885 152.787 35.8806 152.787 38.2831C152.787 41.4606 151.915 43.7662 150.171 45.2C148.428 46.595 146.122 47.2925 143.254 47.2925H116.284V43.1075H143.254C146.819 43.1075 148.602 41.4994 148.602 38.2831C148.602 36.9656 148.098 35.9387 147.091 35.2025C146.083 34.4275 144.804 34.04 143.254 34.04H113.959V101ZM116.284 51.4775H143.254C147.091 51.4775 150.326 50.3344 152.961 48.0481C155.635 45.7231 156.972 42.4681 156.972 38.2831C156.972 34.9119 155.577 31.9669 152.787 29.4481C150.036 26.9294 146.858 25.67 143.254 25.67H105.589V101H101.404V21.485H143.254C148.021 21.485 152.186 23.1706 155.751 26.5419C159.355 29.8744 161.157 33.7881 161.157 38.2831C161.157 41.8094 160.324 44.89 158.658 47.525C157.03 50.16 154.821 52.1944 152.031 53.6281C158.115 55.7981 161.157 60.2156 161.157 66.8806C161.157 72.1506 159.413 76.3744 155.926 79.5519C152.438 82.6906 148.214 84.26 143.254 84.26H116.284V80.075H143.254C147.091 80.075 150.326 78.9319 152.961 76.6456C155.635 74.3206 156.972 71.0656 156.972 66.8806C156.972 64.0519 155.964 61.5525 153.949 59.3825C151.934 57.2125 148.97 55.9531 145.056 55.6044C144.669 55.6431 144.068 55.6625 143.254 55.6625H116.284V51.4775ZM169.527 38.2831C169.527 43.7081 167.609 48.61 163.773 52.9887C167.609 57.2512 169.527 61.8819 169.527 66.8806C169.527 71.7244 168.306 76.1419 165.865 80.1331C163.463 84.0856 160.246 87.1662 156.216 89.375C152.225 91.545 147.904 92.63 143.254 92.63H116.284V88.445H143.254C149.299 88.445 154.492 86.43 158.832 82.4C163.172 78.3312 165.342 73.1581 165.342 66.8806C165.342 64.6331 164.761 62.1531 163.598 59.4406C162.474 56.6894 160.905 54.5969 158.89 53.1631C163.191 49.1331 165.342 44.1731 165.342 38.2831C165.342 32.6256 163.133 27.7237 158.716 23.5775C154.298 19.3925 149.144 17.3 143.254 17.3H97.2194V101H93.0344V13.115H143.254C147.866 13.115 152.186 14.2581 156.216 16.5444C160.285 18.7919 163.521 21.8725 165.923 25.7862C168.326 29.6612 169.527 33.8269 169.527 38.2831ZM168.539 53.2212C171.988 48.61 173.712 43.6306 173.712 38.2831C173.712 33.0519 172.317 28.1887 169.527 23.6937C166.776 19.16 163.056 15.5756 158.367 12.9406C153.678 10.2669 148.641 8.93 143.254 8.93H88.8494V101H84.6644V4.745H143.254C149.377 4.745 155.093 6.25625 160.401 9.27875C165.749 12.3012 169.992 16.4087 173.131 21.6012C176.308 26.755 177.897 32.3156 177.897 38.2831C177.897 43.9794 176.289 48.9781 173.073 53.2794C176.289 57.7356 177.897 62.2694 177.897 66.8806C177.897 72.0731 176.967 76.8394 175.107 81.1794C173.247 85.4806 170.728 89.065 167.551 91.9325C164.412 94.8 160.75 97.0281 156.565 98.6169C152.38 100.206 147.943 101 143.254 101H116.284V96.815H143.254C147.323 96.815 151.218 96.0594 154.938 94.5481C158.658 92.9981 161.893 90.9056 164.644 88.2706C167.396 85.6356 169.585 82.4581 171.213 78.7381C172.879 75.0181 173.712 71.0656 173.712 66.8806C173.712 65.0206 173.266 62.7925 172.375 60.1962C171.523 57.5612 170.244 55.2362 168.539 53.2212Z" fill="black"/>
</svg>
